<?xml version="1.0" encoding="UTF-8" standalone="no"?>
<svg
   xmlns:dc="http://purl.org/dc/elements/1.1/"
   xmlns:cc="http://creativecommons.org/ns#"
   xmlns:rdf="http://www.w3.org/1999/02/22-rdf-syntax-ns#"
   xmlns:svg="http://www.w3.org/2000/svg"
   xmlns="http://www.w3.org/2000/svg"
   viewBox="0 0 1122.52 793.70667"
   height="793.70667"
   width="1122.52"
   xml:space="preserve"
   id="svg2"
   version="1.1"><metadata
     id="metadata8"><rdf:RDF><cc:Work
         rdf:about=""><dc:format>image/svg+xml</dc:format><dc:type
           rdf:resource="http://purl.org/dc/dcmitype/StillImage" /></cc:Work></rdf:RDF></metadata><defs
     id="defs6"><clipPath
       id="clipPath18"
       clipPathUnits="userSpaceOnUse"><path
         id="path16"
         d="M 0,595.28 H 841.89 V 0 H 0 Z" /></clipPath></defs><g
     transform="matrix(1.3333333,0,0,-1.3333333,0,793.70667)"
     id="g10"><g
       id="g12"><g
         clip-path="url(#clipPath18)"
         id="g14"><g
           transform="translate(224.0215,467.1106)"
           id="g20"><path
             id="path22"
             style="fill:#ffee00;fill-opacity:1;fill-rule:nonzero;stroke:none"
             d="m 0,0 c -3.026,-11.466 -6.053,-22.932 -9.079,-34.397 -10.573,4.066 -21.146,8.133 -31.719,12.2 l 11.528,-36.401 -38.164,-11.641 29.664,-24.068 -18.069,-25.174 31.172,-0.185 -0.32,-38.546 32.408,23.955 21.958,-31.644 10.213,32.308 29.549,-10.159 -10.208,35.926 36.041,12.615 -29.012,21.154 18.244,27.056 -31.653,-0.641 0.789,39.639 C 43.005,-14.808 32.668,-21.612 22.331,-28.416 14.887,-18.944 7.443,-9.472 0,0" /></g><g
           transform="translate(499.3896,425.4787)"
           id="g24"><path
             id="path26"
             style="fill:#cfaa89;fill-opacity:1;fill-rule:nonzero;stroke:none"
             d="m 0,0 c -0.237,3.978 -0.557,9.898 -0.813,17.086 -0.742,20.766 0.04,24.239 -0.678,33.767 -1.188,15.768 -1.892,26.462 -8.95,37.427 -2.057,3.194 -12.384,19.472 -29.699,21.562 -7.391,0.892 -14.061,-1.04 -17.493,-2.034 -8.833,-2.559 -14.924,-6.768 -17.9,-8.951 -19.428,-14.244 -44.834,-43.798 -48.819,-48.411 -12.841,-14.87 -26.481,-30.533 -46.784,-47.598 -19.561,-16.442 -31.311,-22.422 -41.089,-26.037 -4.483,-1.658 -29.713,-10.985 -40.275,-6.102 -0.837,0.387 -4.722,2.315 -6.509,0.813 -1.174,-0.986 -0.999,-3.082 -0.814,-5.288 0.17,-2.02 0.408,-4.868 2.034,-7.323 0.656,-0.989 2.525,-3.407 11.663,-5.696 4.247,-1.063 7.796,-1.952 13.56,-2.033 8.967,-0.128 17.242,1.908 26.851,5.288 15.224,5.356 25.982,12.372 30.104,15.052 5.942,3.864 23.332,15.588 47.192,40.683 20.564,21.628 32.952,37.427 32.952,37.427 3.054,3.896 12.883,16.57 28.884,28.477 7.362,5.479 13.226,8.708 19.935,7.73 7.991,-1.164 13.044,-7.693 14.645,-9.763 1.117,-1.444 5.308,-7.134 6.916,-22.376 C -23.789,41.394 -25.6,35.868 -26.714,10.984 -26.919,6.415 -27.048,2.701 -27.121,0.407 -18.081,0.271 -9.04,0.136 0,0" /></g><g
           transform="translate(499.3896,425.4787)"
           id="g28"><path
             id="path30"
             style="fill:none;stroke:#2b2b2a;stroke-width:11;stroke-linecap:butt;stroke-linejoin:miter;stroke-miterlimit:10;stroke-dasharray:none;stroke-opacity:1"
             d="m 0,0 c -0.237,3.978 -0.557,9.898 -0.813,17.086 -0.742,20.766 0.04,24.239 -0.678,33.767 -1.188,15.768 -1.892,26.462 -8.95,37.427 -2.057,3.194 -12.384,19.472 -29.699,21.562 -7.391,0.892 -14.061,-1.04 -17.493,-2.034 -8.833,-2.559 -14.924,-6.768 -17.9,-8.951 -19.428,-14.244 -44.834,-43.798 -48.819,-48.411 -12.841,-14.87 -26.481,-30.533 -46.784,-47.598 -19.561,-16.442 -31.311,-22.422 -41.089,-26.037 -4.483,-1.658 -29.713,-10.985 -40.275,-6.102 -0.837,0.387 -4.722,2.315 -6.509,0.813 -1.174,-0.986 -0.999,-3.082 -0.814,-5.288 0.17,-2.02 0.408,-4.868 2.034,-7.323 0.656,-0.989 2.525,-3.407 11.663,-5.696 4.247,-1.063 7.796,-1.952 13.56,-2.033 8.967,-0.128 17.242,1.908 26.851,5.288 15.224,5.356 25.982,12.372 30.104,15.052 5.942,3.864 23.332,15.588 47.192,40.683 20.564,21.628 32.952,37.427 32.952,37.427 3.054,3.896 12.883,16.57 28.884,28.477 7.362,5.479 13.226,8.708 19.935,7.73 7.991,-1.164 13.044,-7.693 14.645,-9.763 1.117,-1.444 5.308,-7.134 6.916,-22.376 C -23.789,41.394 -25.6,35.868 -26.714,10.984 -26.919,6.415 -27.048,2.701 -27.121,0.407 -18.081,0.271 -9.04,0.136 0,0 Z" /></g><g
           transform="translate(542.3047,395.8728)"
           id="g32"><path
             id="path34"
             style="fill:#444444;fill-opacity:1;fill-rule:nonzero;stroke:none"
             d="m 0,0 c 1.779,4.027 2.785,8.464 2.785,13.13 0,18.012 -14.737,32.749 -32.749,32.749 h -54.515 c -18.011,0 -32.749,-14.737 -32.749,-32.749 0,-5.386 1.34,-10.465 3.669,-14.959 -64.626,-24.1 -110.662,-86.359 -110.662,-159.389 0,-93.93 76.141,-170.077 170.067,-170.077 93.925,0 170.067,76.147 170.067,170.077 C 115.913,-86.23 67.363,-22.624 0,0" /></g><g
           transform="translate(542.3047,395.8728)"
           id="g36"><path
             id="path38"
             style="fill:none;stroke:#2b2b2a;stroke-width:19.52700043;stroke-linecap:butt;stroke-linejoin:miter;stroke-miterlimit:10;stroke-dasharray:none;stroke-opacity:1"
             d="m 0,0 c 1.779,4.027 2.785,8.464 2.785,13.13 0,18.012 -14.737,32.749 -32.749,32.749 h -54.515 c -18.011,0 -32.749,-14.737 -32.749,-32.749 0,-5.386 1.34,-10.465 3.669,-14.959 -64.626,-24.1 -110.662,-86.359 -110.662,-159.389 0,-93.93 76.141,-170.077 170.067,-170.077 93.925,0 170.067,76.147 170.067,170.077 C 115.913,-86.23 67.363,-22.624 0,0 Z" /></g><g
           transform="translate(236.3525,422.8098)"
           id="g40"><path
             id="path42"
             style="fill:#f0801b;fill-opacity:1;fill-rule:nonzero;stroke:none"
             d="m 0,0 c -2.018,-5.011 -4.037,-10.022 -6.055,-15.033 -4.699,2.402 -9.4,4.804 -14.099,7.206 l 3.421,-17.042 -18.367,-3.206 12.511,-12.45 -9.744,-10.389 14.485,-1.755 -2.203,-17.375 16.347,9.07 8.524,-15.456 6.471,14.03 13.199,-6.169 -2.833,16.757 17.432,3.759 -12.363,11.101 9.925,11.228 -14.753,1.409 2.479,17.843 C 19.208,-8.988 14.039,-11.503 8.87,-14.019 5.913,-9.346 2.957,-4.673 0,0" /></g><g
           transform="translate(240.9331,468.2224)"
           id="g44"><path
             id="path46"
             style="fill:none;stroke:#2b2b2a;stroke-width:9.76399994;stroke-linecap:butt;stroke-linejoin:miter;stroke-miterlimit:10;stroke-dasharray:none;stroke-opacity:1"
             d="m 0,0 c -5.125,-10.693 -10.25,-21.387 -15.375,-32.081 -9.622,5.98 -19.244,11.959 -28.865,17.939 l 4.489,-37.919 -39.67,-4.268 24.617,-29.21 -22.475,-21.334 30.583,-6.033 -7.551,-37.802 36.329,17.445 15.626,-35.204 16.098,29.816 27.116,-15.526 -3.281,37.204 37.768,5.623 -24.523,26.225 22.998,23.15 -31.211,5.313 8.218,38.786 C 39.46,-22.619 28.03,-27.361 16.599,-32.104 11.066,-21.402 5.533,-10.701 0,0 Z" /></g><g
           transform="translate(448.5371,368.9304)"
           id="g48"><path
             id="path50"
             style="fill:#ffffff;fill-opacity:1;fill-rule:nonzero;stroke:none"
             d="m 0,0 c -11.01,-3.681 -17.899,-7.322 -17.899,-7.322 -5.636,-2.979 -25.034,-13.414 -40.683,-30.648 0,0 -5.08,-5.594 -9.221,-14.645 -3.492,-7.632 -2.748,-10.002 -2.17,-11.12 1.792,-3.465 6.977,-4.697 10.848,-4.34 7.223,0.668 10.7,6.929 17.629,14.646 7.069,7.871 14.115,12.751 28.207,22.511 6.562,4.545 15.469,10.009 27.12,15.187 l 0.001,10e-4 c 4.628,1.826 10.544,3.793 11.391,8.136 0.603,3.095 -1.559,6.419 -3.797,8.136 C 18.364,2.893 14.72,2.577 10.035,2.17 5.453,1.772 2.03,0.679 0,0" /></g><g
           transform="translate(374.4468,265.1179)"
           id="g52"><path
             id="path54"
             style="fill:#ffffff;fill-opacity:1;fill-rule:nonzero;stroke:none"
             d="m 0,0 c -4.314,-9.475 -12.951,-14.814 -19.29,-11.928 -6.338,2.887 -7.98,12.907 -3.665,22.381 4.314,9.474 12.951,14.815 19.289,11.928 C 2.673,19.494 4.314,9.474 0,0" /></g></g></g></g></svg>